<svg version="1.1" id="Layer_1" xmlns="http://www.w3.org/2000/svg" xmlns:xlink="http://www.w3.org/1999/xlink" x="0px" y="0px"
	 width="100%" viewBox="0 0 689 850" enable-background="new 0 0 689 850" xml:space="preserve">
<path fill="#003087" opacity="1.000000" stroke="none" 
	d="
M116.000000,1.000001 
	C214.020889,1.000000 312.041779,1.000000 410.514099,1.408941 
	C411.637207,2.200261 412.269653,2.802153 412.986847,2.930457 
	C418.977661,4.002236 425.050995,4.693343 430.975098,6.044557 
	C475.923218,16.296692 513.773376,38.340256 543.473022,73.933281 
	C557.491089,90.732994 567.895264,109.551834 575.077209,130.132980 
	C582.269531,150.743729 585.522339,172.040924 584.852539,193.935333 
	C584.438232,194.002441 584.270630,194.016785 583.781494,193.877502 
	C575.580688,190.179688 567.849182,186.250183 559.795349,183.161209 
	C532.097168,172.537842 503.131256,169.193695 473.699219,169.048874 
	C448.035736,168.922577 422.371185,169.022522 396.707092,169.022552 
	C355.711243,169.022598 314.715363,169.004944 273.719513,169.031509 
	C257.392426,169.042099 248.336121,177.011093 245.911087,192.957367 
	C241.945587,219.033188 237.840347,245.087967 233.732010,271.141815 
	C230.192154,293.590454 226.560211,316.024567 222.979172,338.466705 
	C219.398285,360.907959 215.782181,383.343719 212.278320,405.797028 
	C210.744598,415.625397 209.451569,425.491364 208.043457,435.722778 
	C206.691086,443.094940 205.162109,450.055328 204.034592,457.080109 
	C201.410858,473.426544 199.041931,489.813782 196.450012,506.165466 
	C194.765076,516.795227 192.775726,527.376709 191.088181,538.006104 
	C187.794540,558.751709 184.591415,579.511841 181.399338,600.273376 
	C178.886154,616.619385 176.569473,632.996582 173.922882,649.320618 
	C172.523727,657.950500 170.606583,666.496460 168.460541,675.052490 
	C120.385750,675.016418 72.773712,675.019043 25.161690,674.988342 
	C17.940239,674.983704 11.165730,673.394958 6.788204,667.119019 
	C4.707434,664.135864 3.665471,660.428101 2.090215,656.626343 
	C2.069432,654.786865 2.111348,653.369629 2.438459,651.678528 
	C3.670667,644.882690 4.557270,638.351257 5.578115,631.840759 
	C7.338757,620.612305 9.224547,609.403442 10.981371,598.174377 
	C13.171204,584.177734 15.223404,570.159302 17.444588,556.167786 
	C20.233456,538.600281 23.166912,521.055847 25.974829,503.491333 
	C28.262587,489.180664 30.442169,474.852692 32.697685,460.536804 
	C35.107727,445.240112 37.572376,429.952026 39.972744,414.653809 
	C42.219391,400.335266 44.378857,386.002960 46.638889,371.686523 
	C49.387295,354.276398 52.220612,336.879700 54.979954,319.471283 
	C57.248745,305.157684 59.450893,290.833527 61.705620,276.517670 
	C63.448627,265.450928 65.265961,254.395767 66.980431,243.324646 
	C69.148598,229.323776 71.170715,215.299973 73.392784,201.307831 
	C76.182487,183.741364 79.209297,166.212296 81.952423,148.638763 
	C84.798431,130.406097 87.333511,112.124939 90.175774,93.891663 
	C93.701584,71.273331 97.606239,48.712246 100.933762,26.065674 
	C102.358887,16.366537 105.743210,8.299863 114.510727,3.142112 
	C115.191582,2.741576 115.512039,1.728422 116.000000,1.000001 
z"/>
<path fill="#000000" opacity="1.000000" stroke="none" 
	d="
M115.531342,1.000001 
	C115.512039,1.728422 115.191582,2.741576 114.510727,3.142112 
	C105.743210,8.299863 102.358887,16.366537 100.933762,26.065674 
	C97.606239,48.712246 93.701584,71.273331 90.175774,93.891663 
	C87.333511,112.124939 84.798431,130.406097 81.952423,148.638763 
	C79.209297,166.212296 76.182487,183.741364 73.392784,201.307831 
	C71.170715,215.299973 69.148598,229.323776 66.980431,243.324646 
	C65.265961,254.395767 63.448627,265.450928 61.705620,276.517670 
	C59.450893,290.833527 57.248745,305.157684 54.979954,319.471283 
	C52.220612,336.879700 49.387295,354.276398 46.638889,371.686523 
	C44.378857,386.002960 42.219391,400.335266 39.972744,414.653809 
	C37.572376,429.952026 35.107727,445.240112 32.697685,460.536804 
	C30.442169,474.852692 28.262587,489.180664 25.974829,503.491333 
	C23.166912,521.055847 20.233456,538.600281 17.444588,556.167786 
	C15.223404,570.159302 13.171204,584.177734 10.981371,598.174377 
	C9.224547,609.403442 7.338757,620.612305 5.578115,631.840759 
	C4.557270,638.351257 3.670667,644.882690 2.369288,651.225891 
	C2.009949,434.364716 2.004974,217.682358 2.000000,1.000000 
	C39.687561,1.000000 77.375122,1.000000 115.531342,1.000001 
z"/>
<path fill="#000000" opacity="1.000000" stroke="none" 
	d="
M585.099243,193.882568 
	C585.522339,172.040924 582.269531,150.743729 575.077209,130.132980 
	C567.895264,109.551834 557.491089,90.732994 543.473022,73.933281 
	C513.773376,38.340256 475.923218,16.296692 430.975098,6.044557 
	C425.050995,4.693343 418.977661,4.002236 412.986847,2.930457 
	C412.269653,2.802153 411.637207,2.200261 410.982727,1.408941 
	C502.687561,1.000000 594.375122,1.000000 686.531372,1.459705 
	C687.000000,115.270851 687.000671,228.622284 686.994202,341.973724 
	C686.994080,343.968170 686.906921,345.962585 686.512512,347.718750 
	C685.781555,343.057098 685.403931,338.633240 685.014526,334.210480 
	C683.260254,314.288116 676.998474,295.620483 668.273987,277.848114 
	C655.885132,252.611267 638.883118,230.820450 616.247070,213.950485 
	C606.366821,206.587082 595.511658,200.531876 585.099243,193.882568 
z"/>
<path fill="#00FFFF" opacity="1.000000" stroke="none" 
	d="
M686.860352,347.957031 
	C686.906921,345.962585 686.994080,343.968170 686.994202,341.973724 
	C687.000671,228.622284 687.000000,115.270851 687.000000,1.459705 
	C688.654358,1.048076 690.871765,0.378559 690.024292,3.506584 
	C689.856018,4.127662 690.000000,4.833333 690.000000,5.500000 
	C690.000000,287.333344 690.000000,569.166687 690.000000,851.000000 
	C460.333344,851.000000 230.666672,851.000000 1.000000,851.000000 
	C1.000000,567.666687 1.000000,284.333344 1.500000,1.000000 
	C2.004974,217.682358 2.009949,434.364716 2.084094,651.499695 
	C2.111348,653.369629 2.069432,654.786865 2.021446,657.089111 
	C2.015375,719.559814 2.015375,781.145630 2.015375,843.000000 
	C7.376920,843.000000 12.183746,843.003784 16.990566,842.999390 
	C65.310776,842.955200 113.630989,842.909546 162.420822,842.911133 
	C207.942581,842.926392 252.994705,842.894775 298.511353,842.924744 
	C428.229034,842.986267 557.482239,842.986267 687.000000,842.986267 
	C687.000000,840.949646 687.000000,839.474731 687.000000,837.999878 
	C687.000000,683.013855 687.000366,528.027832 686.994446,373.041809 
	C686.994385,371.711243 686.910095,370.380707 686.911621,368.580505 
	C686.925537,361.392914 686.892944,354.674988 686.860352,347.957031 
z"/>
<path fill="#0070E0" opacity="1.000000" stroke="none" 
	d="
M686.512451,347.718750 
	C686.892944,354.674988 686.925537,361.392914 686.562012,368.815796 
	C685.859985,387.007202 682.125366,403.875824 677.180908,420.558868 
	C669.882385,445.184540 658.751953,467.867950 644.089172,488.975250 
	C629.767456,509.591644 612.599121,527.426086 592.714783,542.535461 
	C576.149658,555.122803 557.931946,565.049683 538.697266,573.091553 
	C516.057129,582.557190 492.384888,587.831177 468.062958,589.847656 
	C454.036835,591.010559 439.887268,590.825623 425.790497,590.959595 
	C408.134460,591.127380 390.475525,590.985718 372.817963,591.023743 
	C371.194458,591.027222 369.498199,591.121460 367.960358,591.586060 
	C357.211792,594.834106 351.685028,602.793457 349.958862,615.419922 
	C347.789490,631.288391 345.391876,647.127808 342.900787,662.949585 
	C340.743378,676.652039 338.194153,690.292908 336.041779,703.996155 
	C333.227081,721.916260 330.752411,739.889893 327.911499,757.805664 
	C324.741516,777.796509 320.799469,797.680176 318.203552,817.741211 
	C316.521790,830.737610 310.528168,839.106812 298.046844,842.863159 
	C252.994705,842.894775 207.942581,842.926392 162.243774,842.589844 
	C150.048553,840.760681 144.764313,828.028992 146.196487,819.595764 
	C146.796600,816.061951 147.448273,812.536011 147.990753,808.993408 
	C149.745209,797.535889 151.391968,786.061523 153.207306,774.613770 
	C155.403549,760.764160 157.732986,746.935669 159.998322,733.096985 
	C161.947510,721.189636 163.950653,709.290527 165.808609,697.368896 
	C166.963638,689.957581 167.892776,682.510986 168.923309,675.080261 
	C170.606583,666.496460 172.523727,657.950500 173.922882,649.320618 
	C176.569473,632.996582 178.886154,616.619385 181.399338,600.273376 
	C184.591415,579.511841 187.794540,558.751709 191.088181,538.006104 
	C192.775726,527.376709 194.765076,516.795227 196.450012,506.165466 
	C199.041931,489.813782 201.410858,473.426544 204.034592,457.080109 
	C205.162109,450.055328 206.691086,443.094940 208.305511,435.479248 
	C213.539474,425.843018 221.250565,421.750214 231.447830,421.781250 
	C253.780807,421.849274 276.114746,421.900787 298.447144,421.768494 
	C320.063477,421.640442 341.688324,421.591736 363.291077,420.919128 
	C383.442627,420.291748 403.009644,415.813812 422.044739,409.405273 
	C473.950439,391.930206 515.162354,360.107544 545.395508,314.628632 
	C569.587158,278.237732 582.933655,237.995834 584.103027,194.031113 
	C584.270630,194.016785 584.438232,194.002441 584.852539,193.935349 
	C595.511658,200.531876 606.366821,206.587082 616.247070,213.950485 
	C638.883118,230.820450 655.885132,252.611267 668.273987,277.848114 
	C676.998474,295.620483 683.260254,314.288116 685.014526,334.210480 
	C685.403931,338.633240 685.781555,343.057098 686.512451,347.718750 
z"/>
<path fill="#001C64" opacity="1.000000" stroke="none" 
	d="
M583.781494,193.877502 
	C582.933655,237.995834 569.587158,278.237732 545.395508,314.628632 
	C515.162354,360.107544 473.950439,391.930206 422.044739,409.405273 
	C403.009644,415.813812 383.442627,420.291748 363.291077,420.919128 
	C341.688324,421.591736 320.063477,421.640442 298.447144,421.768494 
	C276.114746,421.900787 253.780807,421.849274 231.447830,421.781250 
	C221.250565,421.750214 213.539474,425.843018 208.311279,435.096741 
	C209.451569,425.491364 210.744598,415.625397 212.278320,405.797028 
	C215.782181,383.343719 219.398285,360.907959 222.979172,338.466705 
	C226.560211,316.024567 230.192154,293.590454 233.732010,271.141815 
	C237.840347,245.087967 241.945587,219.033188 245.911087,192.957367 
	C248.336121,177.011093 257.392426,169.042099 273.719513,169.031509 
	C314.715363,169.004944 355.711243,169.022598 396.707092,169.022552 
	C422.371185,169.022522 448.035736,168.922577 473.699219,169.048874 
	C503.131256,169.193695 532.097168,172.537842 559.795349,183.161209 
	C567.849182,186.250183 575.580688,190.179688 583.781494,193.877502 
z"/>
<path fill="#000000" opacity="1.000000" stroke="none" 
	d="
M168.460541,675.052490 
	C167.892776,682.510986 166.963638,689.957581 165.808609,697.368896 
	C163.950653,709.290527 161.947510,721.189636 159.998322,733.096985 
	C157.732986,746.935669 155.403549,760.764160 153.207306,774.613770 
	C151.391968,786.061523 149.745209,797.535889 147.990753,808.993408 
	C147.448273,812.536011 146.796600,816.061951 146.196487,819.595764 
	C144.764313,828.028992 150.048553,840.760681 161.774139,842.542969 
	C113.630989,842.909546 65.310776,842.955200 16.990566,842.999390 
	C12.183746,843.003784 7.376920,843.000000 2.015375,843.000000 
	C2.015375,781.145630 2.015375,719.559814 2.084145,657.511292 
	C3.665471,660.428101 4.707434,664.135864 6.788204,667.119019 
	C11.165730,673.394958 17.940239,674.983704 25.161690,674.988342 
	C72.773712,675.019043 120.385750,675.016418 168.460541,675.052490 
z"/>
<path fill="#000000" opacity="1.000000" stroke="none" 
	d="
M298.511353,842.924683 
	C310.528168,839.106812 316.521790,830.737610 318.203552,817.741211 
	C320.799469,797.680176 324.741516,777.796509 327.911499,757.805664 
	C330.752411,739.889893 333.227081,721.916260 336.041779,703.996155 
	C338.194153,690.292908 340.743378,676.652039 342.900787,662.949585 
	C345.391876,647.127808 347.789490,631.288391 349.958862,615.419922 
	C351.685028,602.793457 357.211792,594.834106 367.960358,591.586060 
	C369.498199,591.121460 371.194458,591.027222 372.817963,591.023743 
	C390.475525,590.985718 408.134460,591.127380 425.790497,590.959595 
	C439.887268,590.825623 454.036835,591.010559 468.062958,589.847656 
	C492.384888,587.831177 516.057129,582.557190 538.697266,573.091553 
	C557.931946,565.049683 576.149658,555.122803 592.714783,542.535461 
	C612.599121,527.426086 629.767456,509.591644 644.089172,488.975250 
	C658.751953,467.867950 669.882385,445.184540 677.180908,420.558868 
	C682.125366,403.875824 685.859985,387.007202 686.515503,369.285400 
	C686.910095,370.380707 686.994385,371.711243 686.994446,373.041809 
	C687.000366,528.027832 687.000000,683.013855 687.000000,837.999878 
	C687.000000,839.474731 687.000000,840.949646 687.000000,842.986267 
	C557.482239,842.986267 428.229034,842.986267 298.511353,842.924683 
z"/>
</svg>