<svg id="Layer_1" data-name="Layer 1" xmlns="http://www.w3.org/2000/svg" width="163.71" height="202.29" viewBox="0 0 163.71 202.29">
  <path d="M93.23,0c.25.13.47.13.72,0,.32.02.64-.03.96,0,23.02,1.9,43.5,19.26,44.34,43.2.22,1.02.22,2.11,0,3.12l-1.39-.16c-4.34-2.09-8.95-3.57-13.69-4.43l-1.22-.69c-.43.01-.83-.07-1.2-.24-.13.46-.34.46-.48,0-.53-.23-1.14-.19-1.68,0-.41.58-.8.42-.96-.24-1.22-.1-2.42-.18-3.59-.24-17.7-.01-35.11.07-52.24.24-.22.76-1.65,1.51-2.4,1.2-.45.22-.75.49-.96.96.28.73-.48,2.8-1.2,3.12.01.43-.07.83-.24,1.2.57.96.37,2.63-.48,3.36.01.43-.07.83-.24,1.2.55,1.08.37,2.5-.48,3.36.01.43-.07.83-.24,1.2.55,1.08.37,2.5-.48,3.36.01.43-.07.83-.24,1.2.52,1.14.36,2.43-.48,3.36.01.43-.07.83-.24,1.2.53,1.14.36,2.43-.48,3.36.01.43-.07.83-.24,1.2.53,1.14.36,2.43-.48,3.36.01.43-.07.83-.24,1.2.53,1.14.36,2.43-.48,3.36.01.43-.07.83-.24,1.2.55,1.08.37,2.5-.48,3.36.01.43-.07.83-.24,1.2-.32,6.92-1.29,13.96-3.12,20.64-2.29,19.22-5.39,38.37-9.11,57.36H3.73c-1.89-.54-3.36-1.98-3.73-3.95C7.68,106.23,15.9,54.92,24.17,3.68,24.92,1.67,26.58.67,28.52,0h64.71Z" fill="#003086"/>
  <path d="M93.95,0c-.24.29-.48.29-.72,0h.72Z" fill="#607eb4"/>
  <path d="M40.03,161.52c2.97-19.13,6.07-38.25,9.11-57.36.37-1.25.76-1.94,1.85-2.65.8-.52,2.53-1.32,3.18-.47,10.87-.21,21.66-.29,32.35-.24.3-.47.66-.47.96,0l1.68-.24c.13-.46.34-.46.48,0,.42.01.82-.07,1.2-.24l1.16-.67c23.16-3.9,41.94-22.54,46.08-45.69l.68-1.16c.17-.37.25-.77.24-1.2-.46-.13-.46-.34,0-.48l.24-1.68c-.68-.19-.7-1.03,0-1.2,0-.78.15-1.34.48-1.68,17.88,9.33,26.85,28.33,23.17,48.28-4.69,25.45-26.87,45.12-52.77,46.51-6.89.37-15.16-.76-21.78.03-2.61.31-4.72,2.39-5.11,4.97l-8.05,50.97c-.9,3.45-3.15,4.53-6.51,4.76-9.33.64-19.37-.51-28.78,0-3.78-.29-5.6-1.97-5.38-5.89,1.78-11.57,3.72-23.12,5.51-34.68Z" fill="#0070df"/>
  <path d="M139.72,46.57c0,.25-.46,1.41-.48,1.68-.73-.09-.71-1.75,0-1.92,0-1.03.04-2.09,0-3.12.45.6.23,1.73.24,2.53,0,.33.24.73.24.83Z" fill="#3281d5"/>
  <path d="M115.04,40.57c1.16-.24,2.41-.19,3.59,0,.42.02.76.23.96.24.53-.19,1.15-.23,1.68,0,.16.02.32-.02.48,0,.37.17.77.25,1.2.24,5.66.89,11.22,2.66,16.3,5.28v1.92c-.03.4.02.8,0,1.2l-.24,1.68c-.02.16.02.32,0,.48.01.43-.07.83-.24,1.2-3.94,24.52-23.4,43.84-47.93,47.52-.37.18-.77.26-1.2.24-.16.02-.32-.02-.48,0l-1.68.24c-.32,0-.64,0-.96,0-10.99-.08-21.77,0-32.35.24-2.37.15-3.75,1.14-5.03,3.12,1.09-6.86,2.03-13.79,3.12-20.64.17-.37.25-.77.24-1.2.18-1.12.3-2.25.48-3.36.17-.37.25-.77.24-1.2.18-1.12.3-2.25.48-3.36.17-.37.25-.77.24-1.2.18-1.12.3-2.25.48-3.36.17-.37.25-.77.24-1.2.18-1.12.3-2.25.48-3.36.17-.37.25-.77.24-1.2.18-1.12.3-2.25.48-3.36.17-.37.25-.77.24-1.2.18-1.12.3-2.25.48-3.36.17-.37.25-.77.24-1.2.18-1.12.3-2.25.48-3.36.17-.37.25-.77.24-1.2.19-1.11.28-2.26.48-3.36.17-.37.25-.77.24-1.2.28-1.26.52-2.01,1.2-3.12.19-.45.51-.75.96-.96.78-.52,1.49-.92,2.4-1.2,17.41-.19,34.84-.37,52.24,0Z" fill="#001c64"/>
  <path d="M115.04,40.33c.21.07.21.15,0,.24-17.4-.31-34.84.23-52.24,0,.25-.4.91-.24,1.31-.24,16.96-.21,33.97-.03,50.93,0Z" fill="#2b4989"/>
  <path d="M118.63,40.57c-1.19-.05-2.4.02-3.59,0v-.24c1.14,0,2.61-.2,3.59.24Z" fill="#305294"/>
  <path d="M121.27,40.81c-.54-.06-1.13.04-1.68,0,.3-.4,1.37-.4,1.68,0Z" fill="#2d5095"/>
  <path d="M60.4,41.77l-.96.96c.07-.12.03-.4.22-.62.27-.32.59-.24.74-.34Z" fill="#143780"/>
  <path d="M122.95,41.05c-.38-.01-.99.15-1.2-.24.51.06.85.19,1.2.24Z" fill="#305295"/>
  <path d="M58,47.05c.08-.43.15-.78.24-1.2-.01.38.15.99-.24,1.2Z" fill="#2c5094"/>
  <path d="M57.28,51.61c.07-.44.18-.85.24-1.2-.01.38.15.99-.24,1.2Z" fill="#2c4f94"/>
  <path d="M56.56,56.17c.07-.44.18-.86.24-1.2-.01.38.15.99-.24,1.2Z" fill="#294c91"/>
  <path d="M55.84,60.73c.07-.44.19-.87.24-1.2-.01.38.15.99-.24,1.2Z" fill="#294c90"/>
  <path d="M55.12,65.29c.07-.45.19-.87.24-1.2-.01.38.15.99-.24,1.2Z" fill="#2b4f94"/>
  <path d="M54.41,69.85c.07-.45.19-.87.24-1.2-.01.38.15.99-.24,1.2Z" fill="#294c91"/>
  <path d="M53.69,74.41c.07-.45.19-.87.24-1.2-.01.38.15.99-.24,1.2Z" fill="#294c91"/>
  <path d="M52.97,78.97c.07-.44.19-.87.24-1.2-.01.38.15.99-.24,1.2Z" fill="#294c91"/>
  <path d="M52.25,83.52c.07-.44.19-.87.24-1.2-.01.38.15.99-.24,1.2Z" fill="#294c91"/>
  <path d="M86.52,100.8c-.25.4-.91.24-1.31.24-10.12.13-21.07-.62-31.04,0,.25-.4.91-.24,1.31-.24,10.34-.13,20.7.05,31.04,0Z" fill="#2d7ed5"/>
  <path d="M139,51.13c.06-.53-.21-1.34.24-1.68-.03.53.2,1.34-.24,1.68Z" fill="#297ed7"/>
  <path d="M89.16,100.56c-.33.42-1.15.23-1.68.24.34-.46,1.15-.18,1.68-.24Z" fill="#2a7ed7"/>
  <path d="M138.76,52.81c.06-.4.21-1,.24-1.2-.01.38.15.99-.24,1.2Z" fill="#297ed6"/>
  <path d="M90.83,100.32c-.2.39-.81.23-1.2.24.17-.02.8-.18,1.2-.24Z" fill="#2f78ca"/>
</svg>